<svg xmlns="http://www.w3.org/2000/svg" viewBox="0 0 1200 1500" width="1200" height="1500">
  <!-- background -->
  <rect width="1200" height="1500" fill="#FAF6F0"/>

  <!-- top brand strip -->
  <rect x="0" y="0" width="1200" height="110" fill="#1E3A5F"/>
  <g transform="translate(60,55)">
    <rect x="0" y="-22" width="44" height="44" rx="6" fill="#E07A37"/>
    <text x="22" y="10" text-anchor="middle" font-family="Georgia,serif" font-weight="700" font-size="28" fill="#FFFFFF">SM</text>
    <text x="64" y="2" font-family="Georgia,serif" font-weight="700" font-size="30" fill="#FFFFFF">St Mungo's</text>
    <text x="64" y="26" font-family="Helvetica,Arial,sans-serif" font-size="14" fill="#E8DDCB" letter-spacing="2">ENDING HOMELESSNESS · REBUILDING LIVES</text>
  </g>
  <text x="1140" y="60" text-anchor="end" font-family="Helvetica,Arial,sans-serif" font-size="14" fill="#E8DDCB" letter-spacing="1.5">stmungos.org</text>

  <!-- frame tag (auto-sized to text length) -->
  <rect x="60" y="150" width="170" height="44" rx="22" fill="#1E3A5F"/><text x="145.0" y="178.0" text-anchor="middle" font-family="Helvetica,Arial,sans-serif" font-weight="700" font-size="16" fill="#FFFFFF">OUR MISSION</text>

  <!-- hero circle + icon -->
  <circle cx="600" cy="430" r="200" fill="#E8DDCB"/>
  
          <g transform="translate(600,430)" fill="#1E3A5F">
            <path d="M -120 -40 L -60 -90 L -25 -60 L 25 -60 L 60 -90 L 120 -40 L 90 -10 L 70 -25 L 70 95 L -70 95 L -70 -25 L -90 -10 Z"
                  fill="#1E3A5F" stroke="#1E3A5F" stroke-width="3" stroke-linejoin="round"/>
            <path d="M -25 -60 Q 0 -35 25 -60" fill="none" stroke="#FAF6F0" stroke-width="6"/>
          </g>
        

  <!-- headline -->
  <text x="60" y="730" font-family="Georgia,serif" font-weight="700" font-size="58" fill="#2C2C2C">
    <tspan x="60" dy="0">Helping people off the</tspan><tspan x="60" dy="70">streets, one step at a time.</tspan>
  </text>

  <!-- sub headline -->
  <text x="60" y="900" font-family="Georgia,serif" font-style="italic" font-size="30" fill="#1E3A5F">
    <tspan x="60" dy="0">Shelter. Support. A fresh start.</tspan>
  </text>

  <!-- body copy -->
  <text x="60" y="1010" font-family="Helvetica,Arial,sans-serif" font-size="22" fill="#2C2C2C">
    <tspan x="60" dy="0">Every year St Mungo's supports thousands of people experiencing</tspan><tspan x="60" dy="32">homelessness across London. From a hot meal and a safe bed tonight</tspan><tspan x="60" dy="32">to long-term recovery and a place to call home.</tspan>
  </text>

  <!-- icon label band -->
  <rect x="60" y="1240" width="1080" height="70" rx="8" fill="#FFFFFF" stroke="#E8DDCB" stroke-width="2"/>
  <text x="600.0" y="1283" text-anchor="middle" font-family="Helvetica,Arial,sans-serif" font-weight="600" font-size="22" fill="#1E3A5F">Shelter  ·  Clothing  ·  Support  ·  Hope</text>

  <!-- CTA button -->
  <rect x="60" y="1360" width="360" height="80" rx="6" fill="#E07A37"/>
  <text x="240" y="1411" text-anchor="middle" font-family="Helvetica,Arial,sans-serif" font-weight="700" font-size="26" fill="#FFFFFF" letter-spacing="1">DONATE TODAY</text>

  <!-- footer note -->
  <text x="1140" y="1405" text-anchor="end" font-family="Helvetica,Arial,sans-serif" font-size="16" fill="#5C6B7A">Reg. charity · stmungos.org/donate</text>

  <!-- bottom border -->
  <rect x="0" y="1488" width="1200" height="12" fill="#1E3A5F"/>
</svg>